<svg width="24.000000" height="24.000000" viewBox="0 0 24 24" fill="none" xmlns="http://www.w3.org/2000/svg" xmlns:xlink="http://www.w3.org/1999/xlink">
	<desc>
			Created with Pixso.
	</desc>
	<defs/>
	<path id="Vector" d="M0 12C0 5.37323 5.37305 0 12 0C18.627 0 24 5.37323 24 12C24 18.6268 18.627 24 12 24C5.37305 24 0 18.6268 0 12ZM2.03613 12C2.03613 17.5018 6.49805 21.9643 12 21.9643C17.502 21.9643 21.9639 17.5018 21.9639 12C21.9639 6.49823 17.502 2.03571 12 2.03571C6.49805 2.03571 2.03613 6.49823 2.03613 12ZM16.4297 7.5498C16.5479 7.5498 16.6445 7.64624 16.6445 7.7641C16.6445 7.815 16.6279 7.86591 16.5957 7.90338L13.1113 12.0552L16.5908 16.2043C16.623 16.2444 16.6416 16.2927 16.6416 16.3436C16.6416 16.4641 16.5449 16.5579 16.4277 16.5579L14.6592 16.5498L12 13.3784L9.33984 16.5525L7.56934 16.5605C7.45117 16.5605 7.35547 16.4641 7.35547 16.3463C7.35547 16.2953 7.37305 16.2462 7.40625 16.207L10.8906 12.0579L7.40625 7.90607C7.37402 7.86591 7.35547 7.81769 7.35547 7.76678C7.35547 7.64624 7.45117 7.55249 7.56934 7.55249L9.33984 7.56055L12 10.7319L14.6621 7.55786L16.4297 7.5498Z" fill="#2F54EB" fill-opacity="1.000000" fill-rule="evenodd"/>
</svg>
