<svg width="203.000000" height="50.276611" viewBox="0 0 203 50.2766" fill="none" xmlns="http://www.w3.org/2000/svg" xmlns:xlink="http://www.w3.org/1999/xlink">
	<desc>
			Created with Pixso.
	</desc>
	<defs/>
	<path id="Vector" d="M131.664 24.4636L138.778 24.4636L138.778 29.0891L138.883 29.0891C139.2 28.3665 139.674 27.6436 140.306 26.969C140.886 26.2944 141.571 25.7646 142.361 25.2827C143.099 24.8008 143.942 24.4636 144.838 24.1746C145.681 23.9336 146.629 23.8372 147.578 23.7891C148.052 23.7891 148.579 23.8855 149.211 24.03L149.211 30.3901C148.843 30.3418 148.421 30.2937 147.947 30.2454C147.42 30.1973 146.946 30.1492 146.524 30.1492C145.154 30.1492 143.995 30.3901 143.046 30.7754C142.098 31.2092 141.307 31.7874 140.728 32.51C140.148 33.2327 139.726 34.0518 139.516 35.0156C139.252 35.9792 139.147 37.0391 139.147 38.1475L139.147 49.4863L131.664 49.4863L131.664 24.4636Z" fill="#10239E" fill-opacity="1.000000" fill-rule="nonzero"/>
	<path id="Vector" d="M121.588 34.2446C121.219 32.51 120.587 31.2092 119.691 30.2937C118.795 29.4263 117.425 28.9927 115.634 28.9446C114.422 28.9446 113.421 29.1372 112.63 29.5227C111.84 29.9082 111.208 30.3418 110.733 30.8718C110.259 31.45 109.943 32.0283 109.732 32.6064C109.521 33.2327 109.416 33.7627 109.416 34.2446L121.588 34.2446ZM109.416 38.5811C109.521 40.7974 110.101 42.4355 111.26 43.3992C112.367 44.4111 114 44.8928 116.108 44.8928C117.583 44.8928 118.901 44.5557 120.007 43.8811C121.061 43.2065 121.746 42.4355 122.01 41.6646L128.596 41.6646C127.543 44.6519 125.909 46.8201 123.749 48.0728C121.536 49.3738 118.901 50.0002 115.845 50.0002C113.684 50.0002 111.734 49.7112 110.048 49.0847C108.309 48.4583 106.834 47.543 105.675 46.3865C104.463 45.2302 103.514 43.8811 102.882 42.2429C102.25 40.6528 101.933 38.8701 101.933 36.9429C101.933 35.1118 102.25 33.3772 102.935 31.739C103.567 30.1492 104.515 28.7517 105.78 27.5955C106.992 26.439 108.467 25.4753 110.154 24.8008C111.84 24.1262 113.737 23.7891 115.845 23.7891C118.163 23.7891 120.165 24.2227 121.904 25.0417C123.591 25.8608 125.013 26.969 126.12 28.3181C127.226 29.7156 128.017 31.3054 128.544 33.04C129.018 34.8228 129.176 36.6538 129.071 38.5811L109.416 38.5811Z" fill="#10239E" fill-opacity="1.000000" fill-rule="nonzero"/>
	<path id="Vector" d="M92.7415 49.4861L84.4158 49.4861L75.137 24.4634L82.9884 24.4634L88.7321 41.4717L88.8374 41.4717L94.5811 24.4634L102.011 24.4634L92.7415 49.4861Z" fill="#10239E" fill-opacity="1.000000" fill-rule="nonzero"/>
	<path id="Vector" d="M67.6428 34.2446C67.274 32.51 66.6417 31.2092 65.7458 30.2937C64.8501 29.4263 63.4801 28.9927 61.6885 28.9446C60.4764 28.9446 59.4753 29.1372 58.6849 29.5227C57.8945 29.9082 57.2622 30.3418 56.788 30.8718C56.3137 31.45 55.9976 32.0283 55.7867 32.6064C55.5759 33.2327 55.4706 33.7627 55.4706 34.2446L67.6428 34.2446ZM55.4706 38.5811C55.5759 40.7974 56.1556 42.4355 57.3148 43.3992C58.4214 44.4111 60.0549 44.8928 62.1627 44.8928C63.6382 44.8928 64.9554 44.5557 66.062 43.8811C67.116 43.2065 67.8009 42.4355 68.0645 41.6646L74.6511 41.6646C73.5973 44.6519 71.9637 46.8201 69.8033 48.0728C67.5902 49.3738 64.9554 50.0002 61.8992 50.0002C59.7388 50.0002 57.7891 49.7112 56.1029 49.0847C54.364 48.4583 52.8885 47.543 51.7292 46.3865C50.5173 45.2302 49.5688 43.8811 48.9365 42.2429C48.3042 40.6528 47.988 38.8701 47.988 36.9429C47.988 35.1118 48.3042 33.3772 48.9893 31.739C49.6216 30.1492 50.5701 28.7517 51.8347 27.5955C53.0466 26.439 54.5221 25.4753 56.2083 24.8008C57.8945 24.1262 59.7915 23.7891 61.8992 23.7891C64.2178 23.7891 66.2201 24.2227 67.959 25.0417C69.6453 25.8608 71.068 26.969 72.1746 28.3181C73.2811 29.7156 74.0715 31.3054 74.5985 33.04C75.0728 34.8228 75.2308 36.6538 75.1254 38.5811L55.4706 38.5811Z" fill="#10239E" fill-opacity="1.000000" fill-rule="nonzero"/>
	<path id="Vector" d="M37.9397 13.8313L45.3169 13.8313L45.3169 49.4861L37.9397 49.4861L37.9397 13.8313Z" fill="#10239E" fill-opacity="1.000000" fill-rule="nonzero"/>
	<path id="Vector" d="M26.7827 26.0981C26.6243 25.239 26.3074 24.4753 25.8319 23.7593C25.3036 23.0432 24.7225 22.4229 23.983 21.8501C23.2434 21.325 22.3982 20.8955 21.4474 20.6091C20.4965 20.3228 19.5457 20.1794 18.5419 20.1318C16.6401 20.1318 15.0554 20.4658 13.7876 21.134C12.4669 21.8022 11.4104 22.6614 10.618 23.7593C9.77283 24.8572 9.19177 26.0981 8.8219 27.4822C8.45215 28.9141 8.2937 30.3462 8.2937 31.8257C8.2937 33.2576 8.45215 34.6897 8.8219 36.0261C9.19177 37.3625 9.77283 38.6035 10.618 39.6536C11.4104 40.7515 12.4669 41.6106 13.7876 42.2788C15.0554 42.947 16.6401 43.2334 18.5419 43.2334C21.0775 43.2334 23.0321 42.5652 24.4584 41.1333C25.8848 39.749 26.7827 37.8875 27.0997 35.5964L35.1293 35.5964C34.918 37.7444 34.3369 39.6536 33.4917 41.3718C32.5936 43.0901 31.4314 44.5698 30.0051 45.7632C28.526 47.0042 26.8356 47.9109 24.9338 48.5315C22.9792 49.1997 20.8662 49.4861 18.5419 49.4861C15.6365 49.4861 13.048 49.0566 10.7236 48.1497C8.39929 47.2427 6.49756 46.0017 4.91284 44.3789C3.328 42.8037 2.11304 40.9424 1.26782 38.7944C0.422607 36.6465 0 34.3079 0 31.8257C0 29.2961 0.422607 26.9573 1.26782 24.7617C2.11304 22.5659 3.328 20.6567 4.91284 19.0339C6.49756 17.4587 8.39929 16.1702 10.7236 15.2156C13.048 14.3086 15.6365 13.8792 18.5419 13.8313C20.6022 13.8313 22.5566 14.1177 24.4056 14.6428C26.2545 15.2156 27.8921 15.9792 29.3712 17.0293C30.8503 18.0793 32.0653 19.3203 33.0162 20.8477C33.967 22.375 34.5482 24.1411 34.8123 26.0981L26.7827 26.0981Z" fill="#10239E" fill-opacity="1.000000" fill-rule="nonzero"/>
	<path id="Vector" d="M194.991 17.0522L201.466 17.0522L201.466 23.9641L194.991 23.9641L194.991 37.1714C194.991 41.6667 195.272 41.6533 195.834 42.1799C196.396 42.7065 197.52 42.9697 199.206 42.9697C199.768 43.0356 200.26 42.9697 200.822 42.9041C201.314 42.9041 201.993 42.531 202.345 42.1799L202.345 49.4209C201.466 49.7925 200.471 50.2107 199.487 50.2107C198.433 50.2766 197.45 50.2766 196.466 50.2766C196.4 50.2766 195.288 50.2766 194.819 50.2107C193.678 50.0503 191.982 49.4539 190.928 48.8613C190.342 48.5322 188.82 47.051 188.644 46.3928C188.117 45.5701 187.824 43.9573 187.824 42.2456L187.824 23.9641L181.618 23.9641L181.618 17.0522L187.824 17.0522L187.824 5.53247L194.991 5.53247L194.991 17.0522Z" fill="#10239E" fill-opacity="1.000000" fill-rule="nonzero"/>
	<path id="Vector" d="M150.705 23.9641L155.623 23.9641L155.623 49.4866L163.492 49.4866L163.492 23.9641L169.323 23.9641L169.323 17.0522L163.492 17.0522L163.492 16.4597C163.492 15.0774 163.773 13.7646 164.335 13.1721C164.897 12.5798 165.88 12.2507 167.286 12.2507C168.55 12.2507 169.745 12.3164 170.939 12.448L170.939 5.53247L168.269 5.53247L165.635 5.53247C162.297 5.53247 159.663 7.1272 158.082 8.65918C156.044 10.634 155.623 12.905 155.623 15.8672L155.623 17.0522L150.705 17.0522L150.705 23.9641ZM179.511 26.9263L171.853 26.9263L171.853 49.4866L179.511 49.4866L179.511 26.9263Z" fill="#10239E" fill-opacity="1.000000" fill-rule="evenodd"/>
	<path id="Vector" d="M175.88 24.2046L175.764 24.2046C173.759 24.2046 172.134 22.5791 172.134 20.574C172.134 18.5688 173.759 16.9434 175.764 16.9434L175.88 16.9434C177.885 16.9434 179.511 18.5688 179.511 20.574C179.511 22.5791 177.885 24.2046 175.88 24.2046Z" fill="#40A9FF" fill-opacity="1.000000" fill-rule="evenodd"/>
</svg>
