<svg width="72.000488" height="18.100098" viewBox="0 0 72.0005 18.1001" fill="none" xmlns="http://www.w3.org/2000/svg" xmlns:xlink="http://www.w3.org/1999/xlink">
	<desc>
			Created with Pixso.
	</desc>
	<defs/>
	<path id="Vector" d="M46.6987 8.80688L49.2217 8.80688L49.2217 10.4719L49.2593 10.4719C49.3711 10.2119 49.5396 9.95166 49.7637 9.70874C49.9692 9.46582 50.2124 9.27515 50.4927 9.10156C50.7544 8.92822 51.0532 8.80688 51.3711 8.70264C51.6699 8.61597 52.0063 8.5813 52.3428 8.56396C52.5112 8.56396 52.6982 8.59863 52.9224 8.65063L52.9224 10.9404C52.7915 10.9229 52.6421 10.9055 52.4736 10.8882C52.2871 10.8708 52.1187 10.8535 51.9692 10.8535C51.4834 10.8535 51.0723 10.9404 50.7358 11.0791C50.3994 11.2351 50.1191 11.4434 49.9131 11.7036C49.7075 11.9636 49.5581 12.2585 49.4834 12.6055C49.3901 12.9524 49.3525 13.334 49.3525 13.7329L49.3525 17.8149L46.6987 17.8149L46.6987 8.80688Z" fill="#10239E" fill-opacity="1.000000" fill-rule="nonzero"/>
	<path id="Vector" d="M43.1245 12.3279C42.9937 11.7036 42.7695 11.2351 42.4517 10.9055C42.1338 10.5935 41.6479 10.4373 41.0127 10.4199C40.5825 10.4199 40.2275 10.4893 39.9473 10.6282C39.667 10.7668 39.4429 10.9229 39.2744 11.1138C39.1064 11.322 38.9941 11.53 38.9194 11.7383C38.8447 11.9636 38.8071 12.1545 38.8071 12.3279L43.1245 12.3279ZM38.8071 13.8892C38.8447 14.687 39.0503 15.2766 39.4614 15.6235C39.854 15.9878 40.4331 16.1614 41.1807 16.1614C41.7041 16.1614 42.1714 16.0398 42.564 15.7971C42.9375 15.5542 43.1807 15.2766 43.2739 14.9993L45.6104 14.9993C45.2363 16.0747 44.6572 16.8552 43.8906 17.3062C43.106 17.7744 42.1714 18 41.0874 18C40.3213 18 39.6294 17.896 39.0317 17.6704C38.4146 17.4448 37.8916 17.1152 37.4805 16.699C37.0503 16.2827 36.7139 15.7971 36.4897 15.2073C36.2656 14.635 36.1533 13.9932 36.1533 13.2993C36.1533 12.6401 36.2656 12.0156 36.5083 11.426C36.7329 10.8535 37.0693 10.3506 37.5176 9.93433C37.9473 9.51807 38.4707 9.17114 39.0688 8.92822C39.667 8.6853 40.3398 8.56396 41.0874 8.56396C41.9097 8.56396 42.6201 8.71997 43.2368 9.01489C43.8345 9.30981 44.3394 9.70874 44.7319 10.1943C45.124 10.6975 45.4048 11.2698 45.5913 11.8943C45.7598 12.5361 45.8159 13.1953 45.7783 13.8892L38.8071 13.8892Z" fill="#10239E" fill-opacity="1.000000" fill-rule="nonzero"/>
	<path id="Vector" d="M32.894 17.8152L29.9409 17.8152L26.6499 8.80713L29.4346 8.80713L31.4717 14.9302L31.5093 14.9302L33.5464 8.80713L36.1816 8.80713L32.894 17.8152Z" fill="#10239E" fill-opacity="1.000000" fill-rule="nonzero"/>
	<path id="Vector" d="M23.9912 12.3279C23.8604 11.7036 23.6362 11.2351 23.3184 10.9055C23.0005 10.5935 22.5146 10.4373 21.8794 10.4199C21.4492 10.4199 21.0942 10.4893 20.814 10.6282C20.5337 10.7668 20.3096 10.9229 20.1411 11.1138C19.9731 11.322 19.8608 11.53 19.7861 11.7383C19.7114 11.9636 19.6738 12.1545 19.6738 12.3279L23.9912 12.3279ZM19.6738 13.8892C19.7114 14.687 19.917 15.2766 20.3281 15.6235C20.7207 15.9878 21.2998 16.1614 22.0474 16.1614C22.5708 16.1614 23.0381 16.0398 23.4307 15.7971C23.8042 15.5542 24.0474 15.2766 24.1406 14.9993L26.4771 14.9993C26.103 16.0747 25.5239 16.8552 24.7573 17.3062C23.9727 17.7744 23.0381 18 21.9541 18C21.188 18 20.4961 17.896 19.8984 17.6704C19.2812 17.4448 18.7583 17.1152 18.3472 16.699C17.917 16.2827 17.5806 15.7971 17.3564 15.2073C17.1323 14.635 17.02 13.9932 17.02 13.2993C17.02 12.6401 17.1323 12.0156 17.375 11.426C17.5996 10.8535 17.936 10.3506 18.3843 9.93433C18.814 9.51807 19.3374 9.17114 19.9355 8.92822C20.5337 8.6853 21.2065 8.56396 21.9541 8.56396C22.7764 8.56396 23.4868 8.71997 24.1035 9.01489C24.7012 9.30981 25.2061 9.70874 25.5986 10.1943C25.9907 10.6975 26.2715 11.2698 26.458 11.8943C26.6265 12.5361 26.6826 13.1953 26.645 13.8892L19.6738 13.8892Z" fill="#10239E" fill-opacity="1.000000" fill-rule="nonzero"/>
	<path id="Vector" d="M13.4565 4.97949L16.0732 4.97949L16.0732 17.8152L13.4565 17.8152L13.4565 4.97949Z" fill="#10239E" fill-opacity="1.000000" fill-rule="nonzero"/>
	<path id="Vector" d="M9.49951 9.39551C9.44287 9.08618 9.33057 8.81128 9.16211 8.55347C8.97461 8.2959 8.76855 8.07251 8.50635 7.86621C8.24414 7.67725 7.94434 7.52246 7.60693 7.41943C7.26953 7.31641 6.93262 7.26489 6.57666 7.24756C5.90186 7.24756 5.33984 7.36792 4.89014 7.6084C4.42188 7.84912 4.04688 8.15845 3.76611 8.55347C3.46631 8.94873 3.26025 9.39551 3.12891 9.8938C2.99805 10.4094 2.94141 10.9248 2.94141 11.4575C2.94141 11.9729 2.99805 12.4885 3.12891 12.9695C3.26025 13.4507 3.46631 13.8975 3.76611 14.2756C4.04688 14.6707 4.42188 14.98 4.89014 15.2207C5.33984 15.4612 5.90186 15.5642 6.57666 15.5642C7.47559 15.5642 8.16895 15.3237 8.6748 14.8081C9.18066 14.3098 9.49951 13.6396 9.61182 12.8149L12.4595 12.8149C12.3848 13.5881 12.1787 14.2756 11.8789 14.894C11.5605 15.5127 11.1479 16.0454 10.6421 16.4749C10.1177 16.9216 9.51807 17.2483 8.84375 17.4717C8.15039 17.7122 7.40088 17.8152 6.57666 17.8152C5.5459 17.8152 4.62793 17.6606 3.80371 17.334C2.979 17.0076 2.30469 16.5608 1.74268 15.9766C1.18018 15.4097 0.749512 14.7395 0.449707 13.9663C0.149902 13.1929 0 12.3511 0 11.4575C0 10.5469 0.149902 9.70483 0.449707 8.91431C0.749512 8.12402 1.18018 7.43677 1.74268 6.85254C2.30469 6.2854 2.979 5.82153 3.80371 5.47778C4.62793 5.15137 5.5459 4.99658 6.57666 4.97949C7.30713 4.97949 8.00049 5.08252 8.65625 5.27148C9.31201 5.47778 9.89258 5.75269 10.4175 6.13086C10.9419 6.50879 11.373 6.95557 11.71 7.50537C12.0474 8.05518 12.2534 8.69092 12.3472 9.39551L9.49951 9.39551Z" fill="#10239E" fill-opacity="1.000000" fill-rule="nonzero"/>
	<path id="Vector" d="M69.1602 6.13916L71.457 6.13916L71.457 8.62744L69.1602 8.62744L69.1602 13.3823C69.1602 15.0005 69.2598 14.9956 69.4595 15.1853C69.6587 15.3748 70.0576 15.4697 70.6553 15.4697C70.855 15.4934 71.0293 15.4697 71.2285 15.446C71.4028 15.446 71.644 15.3118 71.7686 15.1853L71.7686 17.792C71.457 17.9258 71.104 18.0764 70.7554 18.0764C70.3813 18.1001 70.0327 18.1001 69.6836 18.1001C69.6602 18.1001 69.2656 18.1001 69.0996 18.0764C68.6948 18.0186 68.0933 17.804 67.7192 17.5906C67.5117 17.4722 66.9717 16.939 66.9092 16.7019C66.7227 16.4058 66.6187 15.8252 66.6187 15.209L66.6187 8.62744L64.4175 8.62744L64.4175 6.13916L66.6187 6.13916L66.6187 1.99219L69.1602 1.99219L69.1602 6.13916Z" fill="#10239E" fill-opacity="1.000000" fill-rule="nonzero"/>
	<path id="Vector" d="M53.4536 8.62744L55.1978 8.62744L55.1978 17.8157L57.9888 17.8157L57.9888 8.62744L60.0571 8.62744L60.0571 6.1394L57.9888 6.1394L57.9888 5.92603C57.9888 5.42847 58.0889 4.95581 58.2881 4.74243C58.4873 4.5293 58.8364 4.41064 59.3345 4.41064C59.7832 4.41064 60.2065 4.43433 60.6304 4.48193L60.6304 1.99219L59.6836 1.99219L58.749 1.99219C57.5654 1.99219 56.6309 2.56616 56.0703 3.11792C55.3477 3.82886 55.1978 4.64624 55.1978 5.71265L55.1978 6.1394L53.4536 6.1394L53.4536 8.62744ZM63.6704 9.69385L60.9541 9.69385L60.9541 17.8157L63.6704 17.8157L63.6704 9.69385Z" fill="#10239E" fill-opacity="1.000000" fill-rule="evenodd"/>
	<path id="Vector" d="M62.3633 8.71411L62.3608 8.71411C61.6392 8.71411 61.0542 8.12891 61.0542 7.40723C61.0542 6.6853 61.6392 6.1001 62.3608 6.1001L62.3633 6.1001C63.0854 6.1001 63.6704 6.6853 63.6704 7.40723C63.6704 8.12891 63.0854 8.71411 62.3633 8.71411Z" fill="#40A9FF" fill-opacity="1.000000" fill-rule="evenodd"/>
</svg>
