<svg width="70.000000" height="70.000000" viewBox="0 0 70 70" fill="none" xmlns="http://www.w3.org/2000/svg" xmlns:xlink="http://www.w3.org/1999/xlink">
	<desc>
			Created with Pixso.
	</desc>
	<defs/>
	<path id="Vector" d="M35 0C15.6719 0 0 15.6719 0 35C0 54.3281 15.6719 70 35 70C54.3281 70 70 54.3281 70 35C70 15.6719 54.3281 0 35 0ZM32.5 18.125C32.5 17.7812 32.7812 17.5 33.125 17.5L36.875 17.5C37.2188 17.5 37.5 17.7812 37.5 18.125L37.5 39.375C37.5 39.7188 37.2188 40 36.875 40L33.125 40C32.7812 40 32.5 39.7188 32.5 39.375L32.5 18.125ZM35 52.5C34.0187 52.4795 33.0844 52.0762 32.3975 51.375C31.7104 50.6738 31.3258 49.7314 31.3258 48.75C31.3258 47.7686 31.7104 46.8262 32.3975 46.125C33.0844 45.4238 34.0187 45.0205 35 45C35.9813 45.0205 36.9156 45.4238 37.6025 46.125C38.2896 46.8262 38.6742 47.7686 38.6742 48.75C38.6742 49.7314 38.2896 50.6738 37.6025 51.375C36.9156 52.0762 35.9813 52.4795 35 52.5Z" fill="#2F54EB" fill-opacity="1.000000" fill-rule="nonzero"/>
</svg>
