<svg width="70.003906" height="61.250000" viewBox="0 0 70.0039 61.25" fill="none" xmlns="http://www.w3.org/2000/svg" xmlns:xlink="http://www.w3.org/1999/xlink">
	<desc>
			Created with Pixso.
	</desc>
	<defs/>
	<path id="Vector" d="M69.666 57.5L37.166 1.25C36.6816 0.414062 35.8457 0 35.002 0C34.1582 0 33.3145 0.414062 32.8379 1.25L0.337891 57.5C-0.623047 59.1719 0.580078 61.25 2.50195 61.25L67.502 61.25C69.4238 61.25 70.627 59.1719 69.666 57.5ZM32.502 23.125C32.502 22.7812 32.7832 22.5 33.127 22.5L36.877 22.5C37.2207 22.5 37.502 22.7812 37.502 23.125L37.502 37.5C37.502 37.8438 37.2207 38.125 36.877 38.125L33.127 38.125C32.7832 38.125 32.502 37.8438 32.502 37.5L32.502 23.125ZM35.002 50.625C34.0206 50.605 33.0863 50.2012 32.3994 49.5C31.7125 48.7988 31.3278 47.8564 31.3278 46.875C31.3278 45.8936 31.7125 44.9512 32.3994 44.25C33.0863 43.5488 34.0206 43.145 35.002 43.125C35.9833 43.145 36.9176 43.5488 37.6046 44.25C38.2915 44.9512 38.6763 45.8936 38.6763 46.875C38.6763 47.8564 38.2915 48.7988 37.6046 49.5C36.9176 50.2012 35.9833 50.605 35.002 50.625Z" fill="#FAAD14" fill-opacity="1.000000" fill-rule="nonzero"/>
</svg>
