<svg width="253.489990" height="293.265625" viewBox="0 0 253.49 293.266" fill="none" xmlns="http://www.w3.org/2000/svg" xmlns:xlink="http://www.w3.org/1999/xlink">
	<desc>
			Created with Pixso.
	</desc>
	<defs/>
	<path id="Vector" d="M0 127.8L0 125.69C0 56.2744 56.2729 0 125.69 0L127.8 0C197.216 0 253.49 56.2744 253.49 125.69L253.49 127.8C253.49 197.217 197.216 253.49 127.8 253.49L125.69 253.49C56.2729 253.49 0 197.217 0 127.8Z" fill="#E4EBF7" fill-opacity="1.000000" fill-rule="evenodd"/>
	<path id="Vector" d="M39.9893 131.706C39.8795 132.795 39.5564 133.852 39.0385 134.815C38.5204 135.779 37.8176 136.632 36.9702 137.324C36.1228 138.017 35.1472 138.535 34.0995 138.851C33.0516 139.165 31.9519 139.271 30.8632 139.161C29.7745 139.052 28.718 138.729 27.7542 138.211C26.7903 137.692 25.9379 136.99 25.2456 136.143C24.5533 135.295 24.0348 134.319 23.7196 133.271C23.4043 132.224 23.2985 131.124 23.4082 130.035C23.6317 127.839 24.7184 125.82 26.4293 124.424C28.1404 123.027 30.3357 122.367 32.533 122.589C34.7302 122.811 36.7496 123.896 38.1476 125.604C39.5455 127.314 40.2075 129.509 39.9882 131.706L39.9893 131.706Z" fill="#FFFFFF" fill-opacity="1.000000" fill-rule="evenodd"/>
	<path id="Vector" d="M47.7432 141.172L37.1902 135.188L47.7432 141.172ZM48.6652 147.482L35.9312 158.344" stroke="#FFFFFF" stroke-opacity="1.000000" stroke-width="2.000000"/>
	<path id="Vector" d="M40.11 160.414C40.0408 161.164 39.8237 161.894 39.4712 162.56C39.1188 163.226 38.6379 163.814 38.0565 164.294C37.475 164.772 36.8044 165.132 36.0834 165.351C35.3624 165.569 34.6052 165.643 33.8556 165.567C33.1061 165.491 32.3788 165.269 31.7159 164.91C31.0531 164.552 30.4678 164.066 29.9937 163.48C29.5195 162.896 29.166 162.222 28.9536 161.499C28.7412 160.776 28.6741 160.019 28.756 159.27C28.9198 157.773 29.6678 156.402 30.8374 155.455C32.007 154.509 33.5033 154.062 35.0007 154.213C36.498 154.364 37.8751 155.101 38.832 156.262C39.7889 157.423 40.2483 158.916 40.11 160.414ZM57.943 144.198C57.8706 144.952 57.6501 145.684 57.2942 146.352C56.9382 147.02 56.4537 147.61 55.8687 148.091C55.2836 148.571 54.6094 148.931 53.8848 149.15C53.1602 149.369 52.3995 149.442 51.6464 149.367C50.8932 149.291 50.1625 149.067 49.4961 148.708C48.8298 148.349 48.241 147.861 47.7634 147.274C47.2859 146.688 46.929 146.012 46.7134 145.286C46.4978 144.561 46.4277 143.799 46.5071 143.046C46.6627 141.532 47.4128 140.142 48.5928 139.18C49.7726 138.218 51.2859 137.764 52.8004 137.916C54.3149 138.069 55.707 138.816 56.6711 139.994C57.6353 141.172 58.0927 142.685 57.943 144.199L57.943 144.198ZM99.656 27.0322L129.68 27.0195C130.287 27.0186 130.887 26.8994 131.448 26.667C132.008 26.4346 132.517 26.0938 132.946 25.665C133.374 25.2363 133.714 24.7266 133.946 24.166C134.178 23.6055 134.297 23.0049 134.297 22.3984C134.297 21.792 134.177 21.1914 133.945 20.6309C133.712 20.0703 133.372 19.5615 132.943 19.1328C132.514 18.7041 132.004 18.3643 131.444 18.1318C130.883 17.9004 130.283 17.7812 129.676 17.7812L99.652 17.7939C98.4436 17.8203 97.2935 18.3184 96.4481 19.1816C95.6028 20.0459 95.1296 21.207 95.1301 22.415C95.1306 23.624 95.6049 24.7842 96.4509 25.6475C97.297 26.5107 98.4476 27.0078 99.656 27.0322ZM111.14 45.4941L141.163 45.4814C141.778 45.4941 142.389 45.3838 142.96 45.1572C143.532 44.9307 144.052 44.5918 144.491 44.1611C144.93 43.7314 145.279 43.2178 145.517 42.6504C145.755 42.084 145.877 41.4746 145.877 40.8604C145.877 40.2451 145.754 39.6367 145.515 39.0703C145.277 38.5039 144.928 37.9902 144.488 37.5605C144.049 37.1299 143.528 36.792 142.956 36.5664C142.385 36.3398 141.774 36.2305 141.159 36.2432L111.135 36.2559C109.91 36.2568 108.735 36.7441 107.87 37.6104C107.004 38.4775 106.517 39.6523 106.518 40.877C106.519 42.1025 107.006 43.2773 107.872 44.1426C108.739 45.0088 109.914 45.4951 111.139 45.4941L111.14 45.4941Z" fill="#FFFFFF" fill-opacity="1.000000" fill-rule="evenodd"/>
	<path id="Vector" d="M113.53 27.0195L113.53 27.0176L129.42 27.0107C128.195 27.0117 127.02 27.499 126.155 28.3652C125.289 29.2324 124.803 30.4072 124.804 31.6318C124.804 32.8574 125.292 34.0322 126.158 34.8975C127.025 35.7637 128.2 36.249 129.425 36.249L113.533 36.2559L113.533 36.2539C114.741 36.2285 115.891 35.7305 116.736 34.8662C117.581 34.0029 118.053 32.8428 118.053 31.6348C118.052 30.4268 117.578 29.2666 116.733 28.4043C115.887 27.541 114.737 27.0439 113.529 27.0195L113.53 27.0195ZM150.167 69.6895L146.188 69.6895C144.923 69.6855 143.711 69.1816 142.816 68.2871C141.922 67.3916 141.418 66.1797 141.414 64.915C141.418 63.6494 141.922 62.4375 142.816 61.543C143.711 60.6484 144.923 60.1445 146.188 60.1406L150.167 60.1406C151.432 60.1445 152.644 60.6484 153.539 61.543C154.434 62.4375 154.938 63.6494 154.942 64.915C154.938 66.1797 154.434 67.3926 153.539 68.2871C152.645 69.1816 151.432 69.6865 150.167 69.6895Z" fill="#FFFFFF" fill-opacity="1.000000" fill-rule="evenodd"/>
	<path id="Vector" d="M171.687 29.832C171.687 13.4404 184.976 0.152344 201.368 0.152344C217.76 0.152344 231.048 13.4404 231.048 29.832C231.048 46.2256 217.76 59.5137 201.368 59.5137C184.976 59.5137 171.688 46.2256 171.688 29.833L171.687 29.832Z" fill="#FF603B" fill-opacity="1.000000" fill-rule="evenodd"/>
	<path id="Vector" d="M203.557 19.0342L202.881 34.0684C202.867 34.4609 202.701 34.8311 202.419 35.1035C202.137 35.376 201.76 35.5273 201.368 35.5273C200.976 35.5273 200.599 35.376 200.317 35.1035C200.035 34.8311 199.869 34.4609 199.855 34.0684L199.18 19.0342C199.169 18.7393 199.218 18.4463 199.323 18.1709C199.428 17.8965 199.587 17.6455 199.792 17.4326C199.996 17.2207 200.241 17.0527 200.512 16.9375C200.783 16.8223 201.074 16.7627 201.369 16.7627C201.663 16.7627 201.954 16.8223 202.225 16.9375C202.496 17.0527 202.741 17.2207 202.946 17.4326C203.15 17.6455 203.309 17.8965 203.414 18.1709C203.519 18.4463 203.568 18.7393 203.557 19.0342ZM203.293 38.4121C203.806 38.8887 204.063 39.5117 204.063 40.2812C204.063 41.0518 203.806 41.6748 203.293 42.1885C202.743 42.665 202.083 42.9219 201.35 42.9219C201.002 42.9277 200.657 42.8633 200.335 42.7305C200.014 42.5977 199.723 42.4014 199.48 42.1514C198.93 41.6377 198.674 41.0156 198.674 40.2812C198.674 39.5117 198.93 38.8887 199.48 38.4121C199.993 37.8984 200.617 37.6787 201.35 37.6787C202.12 37.6787 202.78 37.8984 203.293 38.4121Z" fill="#FFFFFF" fill-opacity="1.000000" fill-rule="evenodd"/>
	<path id="Vector" d="M119.3 132.874C123.726 132.276 122.912 131.67 123.379 128.097C124.054 122.916 120.271 111.161 115.117 102.979C114.029 92.2578 102.519 91.7383 102.519 91.7383C102.519 91.7383 106.831 96.6328 106.715 107.938C108.113 113.181 107.519 122.388 107.519 122.388C107.519 122.388 112.774 133.756 119.299 132.874L119.3 132.874Z" fill="#FFB594" fill-opacity="1.000000" fill-rule="evenodd"/>
	<path id="Vector" d="M100.944 91.208C100.944 91.208 102.407 90.625 104.155 91.79C112.235 93.1885 114.523 98.4961 115.455 103.158C117.319 104.44 117.319 105.488 117.319 106.654C117.684 107.432 118.834 109.685 118.834 109.685C118.834 109.685 111.609 111.433 107.88 116.442C106.481 110.032 100.944 91.207 100.944 91.207L100.944 91.208Z" fill="#FFFFFF" fill-opacity="1.000000" fill-rule="evenodd"/>
	<path id="Vector" d="M94.0082 90.0996L95.0272 84.2842L85.7972 72.4102L80.5642 77.9912L77.9712 87.8545C77.9712 87.8545 86.3612 92.9824 94.0082 90.1006L94.0082 90.0996Z" fill="#FFB594" fill-opacity="1.000000" fill-rule="evenodd"/>
	<path id="Vector" d="M82.9309 77.8145C82.9309 77.8145 78.3739 74.9473 80.4858 70.9229C82.1179 67.8154 85.0228 72.0615 85.0228 72.0615C85.0228 72.0615 85.5469 68.3994 88.1619 68.3994C88.6849 67.3535 89.7308 64.2158 89.7308 64.2158C89.7308 64.2158 101.238 66.8311 103.331 67.3535C103.33 72.584 101.014 86.8828 95.4469 87.3232C86.5068 88.0293 82.9309 77.8145 82.9309 77.8145Z" fill="#FFC6A0" fill-opacity="1.000000" fill-rule="evenodd"/>
	<path id="Vector" d="M102.971 71.8418C105.587 69.748 106.46 62.0664 106.46 62.0664C106.46 62.0664 103.968 61.5742 99.7842 60.0049C95.0762 57.9121 86.9172 55.2334 82.2092 60.9863C72.6692 65.3965 80.1472 80.916 80.1472 80.916L82.8762 77.8799C82.8762 77.8799 78.9202 74.5752 80.7842 71.6025C82.9672 68.1221 84.7272 72.6826 84.7272 72.6826C84.7272 72.6826 85.3672 70.2822 88.3271 69.3223C88.6832 68.6084 89.3672 66.6328 89.7672 65.4502C89.8529 65.1953 90.0306 64.9824 90.2655 64.8516C90.5004 64.7207 90.7755 64.6826 91.0372 64.7432C93.4471 65.3037 99.7603 66.7734 102.454 67.4199C102.978 67.5459 103.33 68.0381 103.279 68.5752L102.971 71.8418Z" fill="#520038" fill-opacity="1.000000" fill-rule="evenodd"/>
	<path id="Vector" d="M101.22 76.1133C101.116 76.7256 100.635 77.1572 100.144 77.0732C99.6542 76.9912 99.3391 76.4268 99.4421 75.8125C99.5461 75.2002 100.027 74.7686 100.518 74.8516C101.009 74.9346 101.323 75.499 101.22 76.1113L101.22 76.1133ZM94.2601 74.6729C94.1561 75.2861 93.6752 75.7168 93.1842 75.6328C92.6942 75.5508 92.3792 74.9863 92.4822 74.373C92.5862 73.7598 93.0671 73.3291 93.5581 73.4131C94.0492 73.4951 94.3632 74.0586 94.2601 74.6729Z" fill="#552950" fill-opacity="1.000000" fill-rule="evenodd"/>
	<path id="Vector" d="M99.2061 73.2432L98.3062 74.8633L98.0061 79.2432L95.7661 79.2432" stroke="#DB836E" stroke-opacity="1.000000" stroke-width="1.063000" stroke-linejoin="round" stroke-linecap="round"/>
	<path id="Vector" d="M99.9263 72.8828C99.9263 72.8828 101.726 72.1621 102.446 73.4229" stroke="#5C2552" stroke-opacity="1.000000" stroke-width="1.117000" stroke-linejoin="round" stroke-linecap="round"/>
	<path id="Vector" d="M81.3672 72.6836C81.3672 72.6836 81.8472 71.5635 82.4872 71.9629C83.1272 72.3633 83.7672 73.4033 83.0472 73.9629C82.3271 74.5234 83.2072 75.6436 83.2072 75.6436" stroke="#DB836E" stroke-opacity="1.000000" stroke-width="1.117000" stroke-linejoin="round" stroke-linecap="round"/>
	<path id="Vector" d="M92.3262 71.3223C92.3262 71.3223 94.1661 72.4424 96.4862 72.2822" stroke="#5C2552" stroke-opacity="1.000000" stroke-width="1.117000" stroke-linejoin="round" stroke-linecap="round"/>
	<path id="Vector" d="M97.126 81.4023L92.7261 80.2021C92.7261 80.2021 94.9661 81.4023 97.126 81.4023ZM95.2061 83.083L93.686 82.7627C93.686 82.7627 94.646 83.1621 95.2061 83.083ZM83.687 79.6426C83.687 79.6426 85.473 86.1895 92.949 87.5967" stroke="#DB836E" stroke-opacity="1.000000" stroke-width="1.063000" stroke-linejoin="round" stroke-linecap="round"/>
	<path id="Vector" d="M95.548 91.2617C95.548 91.2617 94.48 94.082 87.25 93.3662C80.02 92.6494 76.96 88.3223 76.96 88.3223" stroke="#E4EBF7" stroke-opacity="1.000000" stroke-width="1.136000" stroke-linejoin="round" stroke-linecap="round"/>
	<path id="Vector" d="M78.1262 87.0771C78.1262 87.0771 84.6522 92.0488 94.5962 89.5625C94.5962 89.5625 104.173 90.583 106.132 94.8848C111.492 106.655 106.675 131.72 106.132 134.847C109.628 138.902 105.666 143.33 105.666 143.33C90.0422 139.782 69.8562 142.729 69.8562 142.729C65.0072 139.184 68.6332 133.686 68.6332 133.686L62.3802 109.919C59.8953 94.6924 63.2133 90.1162 65.9292 89.1758C68.9592 88.127 73.9692 87.8936 73.9692 87.8936C74.4652 87.8359 75.0492 87.8184 75.3392 87.6611C77.6992 86.3789 78.1262 87.0781 78.1262 87.0781L78.1262 87.0771Z" fill="#FFFFFF" fill-opacity="1.000000" fill-rule="evenodd"/>
	<path id="Vector" d="M65.8281 89.4082C65.8281 89.4082 58.9531 89.873 58.238 97.5645C57.7721 106.421 61.2681 108.519 61.2681 108.519C61.2681 108.519 67.3431 130.62 78.0641 131.476C86.4541 129.299 82.822 124.773 82.7251 120.056C82.4921 108.751 75.6171 103.158 75.6171 103.158C75.6171 103.158 71.405 89.4082 65.8281 89.4082Z" fill="#FFC6A0" fill-opacity="1.000000" fill-rule="evenodd"/>
	<path id="Vector" d="M71.7161 123.824C71.7161 123.824 72.571 135.088 81.5441 130.31C86.3091 127.774 89.125 116.482 91.333 107.742C92.7891 101.974 93.9131 95.5449 93.9131 95.5449L88.9401 93.8359C88.9401 93.8359 86.5321 99.3516 81.171 106.111C76.8361 111.578 72.0271 117.221 71.7161 123.824Z" fill="#FFC6A0" fill-opacity="1.000000" fill-rule="evenodd"/>
	<path id="Vector" d="M108.463 104.79C108.463 104.79 110.21 107.514 106.132 135.325C108.508 137.541 107.185 141.337 105.899 142.835" stroke="#E4EBF7" stroke-opacity="1.000000" stroke-width="1.085000" stroke-linejoin="round" stroke-linecap="round"/>
	<path id="Vector" d="M123.262 131.126C123.262 131.126 122.835 133.857 111.492 133.106C96.3051 132.101 86.166 129.856 86.166 129.856L87.099 124.057C87.099 124.057 87.822 124.271 96.809 123.989C108.696 123.616 115.523 117.919 121.773 122.967C125.812 126.229 123.262 131.127 123.262 131.127L123.262 131.126Z" fill="#FFC6A0" fill-opacity="1.000000" fill-rule="evenodd"/>
	<path id="Vector" d="M70.24 90.5732C70.24 90.5732 64.647 85.834 59.186 93.2529C55.868 100.477 59.703 108.537 61.85 112.831C61.54 116.561 64.1801 117.143 64.1801 117.143C64.1801 117.143 64.288 118.037 65.696 119.822C69.774 112.792 72.416 110.656 79.407 107.276C79.079 106.62 77.53 104.011 77.582 103.509C77.7571 101.819 76.3 100.886 76.3 100.886C76.3 100.886 76.014 100.73 75.135 98.1484C74.347 95.835 73.099 92.9707 70.24 90.5732Z" fill="#FFFFFF" fill-opacity="1.000000" fill-rule="evenodd"/>
	<path id="Vector" d="M90.2323 287.626C90.2323 287.626 95.0874 289.935 98.5453 288.781C101.733 287.718 103.665 289.536 106.547 290.112C109.428 290.689 114.316 291.355 119.754 288.688C119.637 282.46 111.968 284.189 106.236 281.101C103.341 279.54 101.96 275.765 102.17 271.156L91.5443 271.156C91.5443 271.156 89.9713 283.046 90.2323 287.626Z" fill="#CBD1D1" fill-opacity="1.000000" fill-rule="evenodd"/>
	<path id="Vector" d="M90.207 287.432C90.207 287.432 92.952 288.868 97.8461 288.17C101.302 287.676 101.069 288.83 105.264 289.451C109.459 290.072 118.356 289.258 119.598 288.325C120.064 289.567 119.21 290.655 119.21 290.655C119.21 290.655 117.501 291.338 113.772 291.588C111.477 291.741 105.674 291.863 103.632 290.967C101.612 289.413 98.738 289.451 97.572 290.732C93.145 291.808 90.3881 290.423 90.3881 290.423L90.207 287.432Z" fill="#2B0849" fill-opacity="1.000000" fill-rule="evenodd"/>
	<path id="Vector" d="M98.429 271.855L101.925 271.855C101.925 271.855 101.808 279.43 107.052 281.526C101.808 282.227 97.38 278.925 98.429 271.855Z" fill="#A4AABA" fill-opacity="1.000000" fill-rule="evenodd"/>
	<path id="Vector" d="M44.425 271.645C44.425 271.645 42.217 279.419 39.723 284.544C37.839 288.418 35.295 292.397 45.452 292.397C52.422 292.397 54.837 291.895 53.234 285.48C51.63 279.065 53.5129 271.645 53.5129 271.645L44.425 271.645Z" fill="#CBD1D1" fill-opacity="1.000000" fill-rule="evenodd"/>
	<path id="Vector" d="M38.0662 289.876C38.0662 289.876 40.2642 291.102 45.0201 291.102C51.3961 291.102 53.6661 289.371 53.6661 289.371C53.6661 289.371 54.2961 290.539 53.0171 291.641C51.9772 292.538 49.2472 293.31 45.2721 293.262C40.9252 293.212 39.1571 292.669 38.2101 292.038C37.3462 291.461 37.4901 290.381 38.0662 289.876Z" fill="#2B0849" fill-opacity="1.000000" fill-rule="evenodd"/>
	<path id="Vector" d="M45.3441 273.64C45.3441 273.64 45.3792 275.231 45.0151 276.71C44.6501 278.199 43.8851 279.965 43.8312 281.05C43.7701 282.256 48.5862 282.707 49.2341 281.086C49.8842 279.464 50.5912 274.349 51.2401 273.483C51.8882 272.618 46.1001 271.262 45.3441 273.64Z" fill="#A4AABA" fill-opacity="1.000000" fill-rule="evenodd"/>
	<path id="Vector" d="M89.4762 277.169L103.375 277.264C103.375 277.264 104.724 220.62 105.3 210.354C105.876 200.088 109.223 165.303 106.342 144.77L93.3052 144.101L69.5682 144.91C69.5682 144.91 69.1162 149.03 68.3252 155.275C68.2601 155.791 67.6172 156.149 67.5482 156.692C67.4702 157.301 67.9872 158.1 67.8801 158.736C65.4252 173.363 62.0831 191.473 59.6241 205.573C59.5032 206.267 58.3422 206.621 58.1091 208.369C58.0671 208.684 58.3292 209.953 58.2252 210.234C51.0852 229.708 46.0232 262.836 42.5652 277.425L57.7412 277.409C57.7412 277.409 60.0232 267.265 61.9261 258.539C64.8481 245.149 85.9382 170.219 85.9382 170.219L89.0712 169.265L88.9132 217.833C88.9132 217.833 88.6802 219.114 89.2632 219.931C89.8462 220.745 88.6821 221.098 88.8552 222.262L89.2632 224.126C89.2632 224.126 88.7972 231.584 88.3312 236.478C87.8641 241.373 89.4762 277.168 89.4762 277.168L89.4762 277.169Z" fill="#7BB2F9" fill-opacity="1.000000" fill-rule="evenodd"/>
	<path id="Vector" d="M71.795 213.353L64.5701 218.479C65.7671 218.578 68.765 216.383 71.795 213.353ZM96.024 222.133C96.024 222.133 98.905 220.98 102.364 218.099" stroke="#648BD8" stroke-opacity="1.000000" stroke-width="1.085000" stroke-linejoin="round" stroke-linecap="round"/>
	<path id="Vector" d="M96.9731 218.972C96.9731 218.972 99.8551 217.818 103.313 214.938" stroke="#648BD8" stroke-opacity="1.000000" stroke-width="1.032000" stroke-linejoin="round" stroke-linecap="round"/>
	<path id="Vector" d="M69.9312 218.246L63.1722 221.742C63.1722 221.742 65.8962 221.128 69.9312 218.246ZM70.3972 155.242L74.9032 145.765C74.6222 148.99 75.2131 154.62 70.3972 155.242ZM91.8381 159.593C89.5332 161.322 88.7312 161.612 88.7312 161.612L93.1821 143.942C93.1821 143.942 93.2972 158.499 91.8381 159.593ZM88.1871 169.609L89.1971 144.521C89.1971 144.521 89.4662 157.665 88.1871 169.609ZM92.6412 169.258L83.5251 170.309C83.5251 170.309 90.3352 169.258 92.6412 169.258ZM45.1342 274.182L46.0262 269.644L45.1342 274.182ZM46.1222 267.044L46.9371 262.888L46.1222 267.044ZM62.2762 205.539C62.2762 205.539 59.5201 207.442 59.9862 209.462C60.4521 211.482 59.6761 212.887 55.4812 226.715C53.7192 232.521 51.2482 245.637 49.3162 254.992C49.2861 255.137 48.7952 257.639 48.1761 260.792L62.7252 202.102C62.3951 203.72 62.6232 204.006 62.2762 205.539ZM63.2412 198.673L64.1582 193.734C63.8632 195.393 63.5582 197.044 63.2412 198.673ZM70.0862 157.263C70.0862 157.263 68.9462 157.417 69.5671 159.593C69.6842 160.991 66.7892 175.982 64.1852 191.207L71.3302 146.386L70.0862 157.263ZM44.2422 273.325L58.0702 273.325" stroke="#648BD8" stroke-opacity="1.000000" stroke-width="1.085000" stroke-linejoin="round" stroke-linecap="round"/>
	<path id="Vector" d="M106.18 141.716C103.152 141.227 87.355 138.972 69.9611 141.916C69.811 141.941 69.6758 142.021 69.5803 142.14C69.485 142.259 69.4362 142.408 69.443 142.56C69.506 143.867 69.4871 144.902 69.458 145.555C69.454 145.646 69.4705 145.738 69.5062 145.822C69.542 145.907 69.5961 145.982 69.6647 146.043C69.7333 146.104 69.8146 146.149 69.9027 146.175C69.9907 146.2 70.0835 146.206 70.1741 146.19C73.4771 145.657 87.2111 143.779 105.838 145.925C106.185 145.965 106.498 145.711 106.53 145.365C106.654 144.018 106.69 142.939 106.7 142.336C106.703 142.188 106.652 142.042 106.556 141.929C106.461 141.814 106.327 141.739 106.18 141.716Z" fill="#192064" fill-opacity="1.000000" fill-rule="evenodd"/>
	<path id="Vector" d="M96.3982 144.862L96.4011 139.761C96.4023 139.542 96.3187 139.332 96.1678 139.174C96.0168 139.016 95.8105 138.923 95.5922 138.914C92.8795 138.812 90.1642 138.808 87.4512 138.899C87.2314 138.907 87.0233 139 86.8705 139.158C86.7175 139.316 86.6318 139.527 86.6312 139.747L86.6282 144.844C86.6282 145.319 87.0161 145.701 87.4922 145.688C89.9702 145.625 92.6582 145.622 95.5222 145.706C95.6355 145.71 95.7483 145.69 95.8541 145.649C95.96 145.609 96.0565 145.548 96.1382 145.47C96.2198 145.391 96.2849 145.297 96.3296 145.192C96.3743 145.088 96.3976 144.977 96.3982 144.862Z" fill="#FFFFFF" fill-opacity="1.000000" fill-rule="evenodd"/>
	<path id="Vector" d="M95.2391 143.896L95.2411 140.7C95.2426 140.526 95.1761 140.359 95.0562 140.233C94.936 140.108 94.7717 140.034 94.5981 140.028C92.6981 139.968 90.6571 139.955 88.5042 140.019C88.3293 140.023 88.1635 140.097 88.0414 140.223C87.9194 140.348 87.8508 140.516 87.8501 140.69L87.8481 143.883C87.8481 144.259 88.1532 144.56 88.5282 144.552C90.3871 144.51 92.4021 144.509 94.5481 144.563C94.9242 144.573 95.2382 144.272 95.2391 143.896Z" fill="#192064" fill-opacity="1.000000" fill-rule="evenodd"/>
	<path id="Vector" d="M102.921 273.121L90.1021 273.121L102.921 273.121ZM91.2161 275.652L91.2161 269.36C91.222 272.879 91.144 274.91 91.2161 275.652ZM90.9071 267.578L90.9231 263.073C90.9141 264.672 90.9071 265.631 90.9071 267.578ZM90.4401 170.003L91.3721 216.383C91.3721 216.383 92.072 218.014 91.139 219.179C90.207 220.345 93.703 219.879 92.071 221.509C90.441 223.142 93.004 222.675 92.071 225.006C91.453 226.552 91.04 246.927 90.9331 261.519" stroke="#648BD8" stroke-opacity="1.000000" stroke-width="1.085000" stroke-linejoin="round" stroke-linecap="round"/>
	<path id="Vector" d="M75.9498 102.575C75.9498 102.575 78.0479 103.392 77.8149 105.256L78.6309 107.47L73.7358 98.2637L75.9498 102.575ZM76.8818 105.722L64.2969 116.21C64.5299 115.277 66.4729 109.062 76.8818 105.722ZM77.5979 89.6406C77.5979 89.6406 85.2888 95.7773 94.1449 92.3604" stroke="#E4EBF7" stroke-opacity="1.000000" stroke-width="1.085000" stroke-linejoin="round" stroke-linecap="round"/>
	<path id="Vector" d="M91.974 86.5537C91.974 86.5537 97.4501 85.7373 99.5481 82.0078C100.845 81.6631 100.268 84.2207 99.218 85.6797C98.5181 86.6504 98.208 87.2334 98.208 87.2334C98.208 87.2334 98.4021 87.543 98.363 88.0488C98.3101 88.7461 98.1881 88.7021 98.0911 89.0977C98.01 89.4326 98.1991 89.7539 98.0911 90.1465C98.045 90.3164 97.8931 90.6465 97.7091 91.0244C97.5891 91.2734 97.6371 91.7109 97.509 91.9727C97.2781 92.4414 95.947 93.8418 94.8871 94.8271C91.061 98.3809 89.869 96.4717 88.8861 94.4189C87.9921 92.5547 88.2251 89.292 88.0121 87.5439C87.6621 84.6299 85.39 84.5146 86.0891 83.1152C86.432 82.4307 88.9591 83.8057 89.3521 84.8633C90.109 86.9033 92.3041 86.6699 91.974 86.5537Z" fill="#FFC6A0" fill-opacity="1.000000" fill-rule="evenodd"/>
	<path id="Vector" d="M99.8 82.0273C99.3351 82.1045 99.4501 82.2998 98.8301 83.2705C98.2081 84.2412 94.0131 86.2021 92.4401 86.4941C89.8511 86.9746 90.1621 84.9346 88.186 83.6396C86.4961 82.5322 84.6241 83.001 86.7881 85.0371C87.7781 85.9697 87.7201 86.1445 88.186 88.2422C88.5211 89.748 87.5461 91.9121 88.8861 93.835" stroke="#DB836E" stroke-opacity="1.000000" stroke-width="0.774000" stroke-linejoin="round" stroke-linecap="round"/>
	<path id="Vector" d="M79.5431 108.271C77.4431 111.197 75.2771 114.446 73.9861 117.033" stroke="#E59788" stroke-opacity="1.000000" stroke-width="0.774000" stroke-linejoin="round" stroke-linecap="round"/>
	<path id="Vector" d="M87.7202 124.367C87.7202 124.367 85.6222 122.425 82.5931 121.648C79.5632 120.871 79.0192 121.493 77.0771 121.727C75.1351 121.959 73.1921 120.794 73.4252 122.426C73.6582 124.057 78.4752 123.437 78.6312 124.523C78.7861 125.61 72.2612 127.319 70.3182 126.698C69.5411 127.476 70.7842 128.562 72.3381 128.873C72.5712 130.427 74.5912 130.427 74.5912 130.427C74.5912 130.427 75.2902 131.438 77.2322 131.516C79.7181 132.835 86.1661 130.815 88.1862 129.961C90.2062 129.106 87.7202 124.367 87.7202 124.367Z" fill="#FFC6A0" fill-opacity="1.000000" fill-rule="evenodd"/>
	<path id="Vector" d="M76.592 123.843C78.9071 124.113 79.155 124.426 79.155 124.426C79.155 124.426 76.61 127.32 70.0851 126.698L73.425 122.425C73.425 122.425 74.0851 123.552 76.592 123.843ZM77.349 128.155L72.416 128.873C72.416 128.873 76.2421 128.97 77.349 128.155ZM78.3401 129.844L74.9801 130.35C74.9801 130.35 76.941 130.485 78.3401 129.844ZM80.146 131.01L77.2321 131.515C77.2321 131.515 78.9801 131.534 80.146 131.01ZM74.5901 121.493C76.261 122.037 77.4231 121.548 79.718 121.648C81.1071 121.709 82.785 121.352 83.7001 121.798C85.306 122.582 87.332 123.979 87.332 123.979C87.332 123.979 97.858 125.184 106.365 122.853L73.328 121.92C73.328 121.92 72.733 120.888 74.5901 121.493ZM78.864 107.703C78.864 107.703 70.474 110.461 65.696 119.823" stroke="#E59788" stroke-opacity="1.000000" stroke-width="0.774000" stroke-linejoin="round" stroke-linecap="round"/>
	<path id="Vector" d="M109.278 112.132C109.278 112.132 112.658 108.519 116.853 107.47" stroke="#E4EBF7" stroke-opacity="1.000000" stroke-width="1.085000" stroke-linejoin="round" stroke-linecap="round"/>
	<path id="Vector" d="M107.375 122.604C107.375 122.604 117.072 119.859 118.82 121.725" stroke="#E59788" stroke-opacity="1.000000" stroke-width="0.774000" stroke-linejoin="round" stroke-linecap="round"/>
	<path id="Vector" d="M198.576 79.3691L194.605 83.2549L198.576 79.3691ZM190.902 86.877L187.166 90.5322L190.902 86.877ZM187.29 79.2461L191.752 83.8057L187.29 79.2461ZM194.32 86.4307L198.453 90.6562L194.32 86.4307ZM132.974 158.955L129.256 162.673L132.974 158.955ZM125.789 166.14L122.291 169.638L125.789 166.14ZM122.291 158.955L126.561 163.225L122.291 158.955ZM132.975 169.638L129.02 165.683" stroke="#BFCDDD" stroke-opacity="1.000000" stroke-width="2.000000" stroke-linejoin="round" stroke-linecap="round"/>
	<path id="Vector" d="M190.156 211.378L188.552 211.378C187.489 211.374 186.471 210.951 185.719 210.199C184.968 209.447 184.544 208.43 184.541 207.366L184.541 175.278C184.544 174.216 184.968 173.198 185.719 172.447C186.471 171.695 187.489 171.272 188.551 171.269L190.156 171.269C191.219 171.271 192.237 171.695 192.988 172.446C193.74 173.198 194.164 174.216 194.167 175.278L194.167 207.366C194.164 208.429 193.74 209.447 192.989 210.198C192.237 210.949 191.219 211.373 190.157 211.377L190.156 211.378Z" fill="#A3B4C6" fill-opacity="1.000000" fill-rule="evenodd"/>
	<path id="Vector" d="M237.824 212.576C237.824 213.853 237.317 215.076 236.414 215.979C235.512 216.882 234.287 217.389 233.011 217.389L146.375 217.389C145.099 217.389 143.874 216.882 142.972 215.979C142.069 215.076 141.562 213.853 141.562 212.576C141.562 211.299 142.069 210.075 142.972 209.173C143.874 208.27 145.099 207.763 146.375 207.763L233.011 207.763C234.287 207.763 235.512 208.27 236.414 209.173C237.317 210.075 237.824 211.299 237.824 212.576Z" fill="#A3B4C6" fill-opacity="1.000000" fill-rule="evenodd"/>
	<path id="Vector" d="M154.098 189.695L224.611 189.695L224.611 105.078L154.098 105.078L154.098 189.695Z" fill="#A3B4C6" fill-opacity="1.000000" fill-rule="evenodd"/>
	<path id="Vector" d="M224.928 189.695L153.78 189.695C152.93 189.692 152.116 189.353 151.515 188.752C150.914 188.15 150.575 187.336 150.572 186.486L150.572 167.519C150.575 166.669 150.913 165.854 151.514 165.252C152.115 164.651 152.93 164.312 153.78 164.309L224.928 164.309C225.779 164.312 226.594 164.65 227.195 165.252C227.796 165.854 228.135 166.668 228.137 167.519L228.137 186.486C228.135 187.336 227.796 188.151 227.194 188.753C226.593 189.354 225.778 189.692 224.927 189.695L224.928 189.695ZM224.928 130.431L153.78 130.431C152.93 130.429 152.116 130.09 151.515 129.488C150.914 128.888 150.575 128.073 150.572 127.223L150.572 108.255C150.575 107.405 150.914 106.59 151.515 105.989C152.116 105.388 152.93 105.049 153.78 105.046L224.928 105.046C225.779 105.049 226.594 105.388 227.195 105.989C227.796 106.591 228.135 107.405 228.137 108.256L228.137 127.223C228.135 128.073 227.796 128.888 227.194 129.489C226.593 130.09 225.778 130.429 224.927 130.431L224.928 130.431Z" fill="#BFCDDD" fill-opacity="1.000000" fill-rule="evenodd"/>
	<path id="Vector" d="M159.563 120.145C159.243 120.151 158.925 120.094 158.627 119.976C158.329 119.857 158.058 119.682 157.829 119.457C157.601 119.233 157.419 118.966 157.295 118.671C157.171 118.375 157.107 118.059 157.107 117.738C157.107 117.418 157.171 117.101 157.295 116.806C157.419 116.511 157.601 116.243 157.829 116.019C158.058 115.795 158.329 115.618 158.627 115.5C158.925 115.383 159.243 115.325 159.563 115.332C160.193 115.345 160.792 115.604 161.233 116.054C161.674 116.503 161.921 117.108 161.921 117.738C161.921 118.368 161.674 118.973 161.233 119.423C160.792 119.872 160.193 120.132 159.563 120.145ZM166.98 120.145C166.66 120.151 166.342 120.094 166.044 119.976C165.746 119.857 165.475 119.682 165.246 119.457C165.018 119.233 164.836 118.966 164.712 118.671C164.588 118.375 164.524 118.059 164.524 117.738C164.524 117.418 164.588 117.101 164.712 116.806C164.836 116.511 165.018 116.243 165.246 116.019C165.475 115.795 165.746 115.618 166.044 115.5C166.342 115.383 166.66 115.325 166.98 115.332C167.61 115.345 168.209 115.604 168.65 116.054C169.091 116.503 169.338 117.108 169.338 117.738C169.338 118.368 169.091 118.973 168.65 119.423C168.209 119.872 167.61 120.132 166.98 120.145ZM174.397 120.145C174.077 120.151 173.759 120.094 173.461 119.976C173.163 119.857 172.892 119.682 172.663 119.457C172.435 119.233 172.253 118.966 172.129 118.671C172.005 118.375 171.941 118.059 171.941 117.738C171.941 117.418 172.005 117.101 172.129 116.806C172.253 116.511 172.435 116.243 172.663 116.019C172.892 115.795 173.163 115.618 173.461 115.5C173.759 115.383 174.077 115.325 174.397 115.332C175.027 115.345 175.626 115.604 176.067 116.054C176.508 116.503 176.755 117.108 176.755 117.738C176.755 118.368 176.508 118.973 176.067 119.423C175.626 119.872 175.027 120.132 174.397 120.145ZM222.539 120.145L200.078 120.145C199.865 120.145 199.661 120.06 199.511 119.909C199.36 119.759 199.276 119.556 199.276 119.343L199.276 116.135C199.276 115.691 199.635 115.332 200.078 115.332L222.538 115.332C222.982 115.332 223.341 115.691 223.341 116.135L223.341 119.343C223.341 119.785 222.981 120.145 222.539 120.145Z" fill="#FFFFFF" fill-opacity="1.000000" fill-rule="evenodd"/>
	<path id="Vector" d="M224.928 160.062L153.78 160.062C152.93 160.061 152.115 159.721 151.514 159.12C150.913 158.519 150.575 157.704 150.572 156.854L150.572 137.887C150.575 137.037 150.914 136.222 151.515 135.621C152.116 135.02 152.93 134.681 153.78 134.678L224.928 134.678C225.779 134.681 226.593 135.02 227.194 135.62C227.796 136.222 228.135 137.036 228.137 137.887L228.137 156.854C228.135 157.704 227.796 158.52 227.194 159.12C226.593 159.722 225.778 160.061 224.927 160.062L224.928 160.062Z" fill="#BFCDDD" fill-opacity="1.000000" fill-rule="evenodd"/>
	<path id="Vector" d="M222.756 130.431L173.455 130.431L222.756 130.431ZM171.073 130.431L164.984 130.431L171.073 130.431ZM162.702 130.431L155.952 130.431L162.702 130.431ZM223.137 160.212L173.837 160.212L223.137 160.212ZM171.454 160.212L165.365 160.212L171.454 160.212ZM155.57 160.212L162.321 160.212" stroke="#7C90A5" stroke-opacity="1.000000" stroke-width="1.124000" stroke-linejoin="round" stroke-linecap="round"/>
	<path id="Vector" d="M159.563 150.637C158.925 150.637 158.312 150.383 157.861 149.932C157.41 149.479 157.156 148.867 157.156 148.229C157.156 147.591 157.41 146.979 157.861 146.527C158.312 146.076 158.925 145.822 159.563 145.822C160.201 145.822 160.814 146.076 161.265 146.527C161.716 146.979 161.97 147.591 161.97 148.229C161.97 148.867 161.716 149.479 161.265 149.932C160.814 150.383 160.201 150.637 159.563 150.637ZM166.98 150.637C166.342 150.637 165.729 150.383 165.278 149.932C164.827 149.479 164.573 148.867 164.573 148.229C164.573 147.591 164.827 146.979 165.278 146.527C165.729 146.076 166.342 145.822 166.98 145.822C167.618 145.822 168.231 146.076 168.682 146.527C169.133 146.979 169.387 147.591 169.387 148.229C169.387 148.867 169.133 149.479 168.682 149.932C168.231 150.383 167.618 150.637 166.98 150.637ZM174.397 150.637C174.081 150.636 173.768 150.574 173.476 150.453C173.184 150.332 172.919 150.154 172.695 149.931C172.472 149.707 172.294 149.442 172.173 149.15C172.053 148.857 171.99 148.545 171.99 148.229C171.991 147.913 172.053 147.6 172.174 147.308C172.295 147.016 172.472 146.75 172.696 146.527C172.919 146.304 173.185 146.126 173.477 146.005C173.769 145.885 174.082 145.822 174.398 145.822C175.036 145.822 175.649 146.076 176.1 146.527C176.551 146.979 176.805 147.591 176.805 148.229C176.805 148.867 176.551 149.479 176.1 149.932C175.649 150.383 175.036 150.637 174.398 150.637L174.397 150.637ZM222.539 150.637L200.078 150.637C199.865 150.637 199.661 150.552 199.511 150.401C199.36 150.251 199.276 150.047 199.276 149.834L199.276 146.625C199.276 146.183 199.635 145.823 200.078 145.823L222.538 145.823C222.982 145.823 223.341 146.184 223.341 146.625L223.341 149.834C223.341 150.277 222.981 150.637 222.539 150.637ZM159.563 179.585C159.243 179.592 158.925 179.534 158.627 179.416C158.329 179.299 158.058 179.122 157.829 178.898C157.601 178.674 157.419 178.406 157.295 178.111C157.171 177.816 157.107 177.499 157.107 177.179C157.107 176.858 157.171 176.542 157.295 176.246C157.419 175.951 157.601 175.684 157.829 175.46C158.058 175.235 158.329 175.06 158.627 174.941C158.925 174.823 159.243 174.766 159.563 174.772C160.193 174.785 160.792 175.044 161.233 175.494C161.674 175.944 161.921 176.549 161.921 177.179C161.921 177.809 161.674 178.413 161.233 178.863C160.792 179.313 160.193 179.572 159.563 179.585ZM166.98 179.585C166.66 179.592 166.342 179.534 166.044 179.416C165.746 179.299 165.475 179.122 165.246 178.898C165.018 178.674 164.836 178.406 164.712 178.111C164.588 177.816 164.524 177.499 164.524 177.179C164.524 176.858 164.588 176.542 164.712 176.246C164.836 175.951 165.018 175.684 165.246 175.46C165.475 175.235 165.746 175.06 166.044 174.941C166.342 174.823 166.66 174.766 166.98 174.772C167.61 174.785 168.209 175.044 168.65 175.494C169.091 175.944 169.338 176.549 169.338 177.179C169.338 177.809 169.091 178.413 168.65 178.863C168.209 179.313 167.61 179.572 166.98 179.585ZM174.397 179.585C174.077 179.592 173.759 179.534 173.461 179.416C173.163 179.299 172.892 179.122 172.663 178.898C172.435 178.674 172.253 178.406 172.129 178.111C172.005 177.816 171.941 177.499 171.941 177.179C171.941 176.858 172.005 176.542 172.129 176.246C172.253 175.951 172.435 175.684 172.663 175.46C172.892 175.235 173.163 175.06 173.461 174.941C173.759 174.823 174.077 174.766 174.397 174.772C175.027 174.785 175.626 175.044 176.067 175.494C176.508 175.944 176.755 176.549 176.755 177.179C176.755 177.809 176.508 178.413 176.067 178.863C175.626 179.313 175.027 179.572 174.397 179.585ZM222.539 179.585L200.078 179.585C199.865 179.585 199.661 179.501 199.511 179.351C199.36 179.2 199.276 178.996 199.276 178.783L199.276 175.574C199.276 175.131 199.635 174.772 200.078 174.772L222.538 174.772C222.982 174.772 223.341 175.132 223.341 175.574L223.341 178.783C223.341 179.227 222.981 179.585 222.539 179.585Z" fill="#FFFFFF" fill-opacity="1.000000" fill-rule="evenodd"/>
	<path id="Vector" d="M203.04 220.707L175.668 220.707C175.031 220.705 174.419 220.451 173.969 220C173.518 219.549 173.264 218.938 173.262 218.301L173.262 206.853C173.264 206.215 173.518 205.604 173.969 205.152C174.42 204.702 175.031 204.447 175.668 204.445L203.04 204.445C203.678 204.447 204.289 204.701 204.74 205.152C205.191 205.604 205.445 206.215 205.447 206.853L205.447 218.299C205.446 218.938 205.192 219.549 204.74 220C204.289 220.45 203.678 220.705 203.04 220.706L203.04 220.707Z" fill="#BFCDDD" fill-opacity="1.000000" fill-rule="evenodd"/>
	<path id="Vector" d="M177.259 218.336L177.259 206.816L177.259 218.336ZM201.05 206.816L201.05 218.336" stroke="#A3B4C6" stroke-opacity="1.000000" stroke-width="1.124000" stroke-linejoin="round" stroke-linecap="round"/>
	<path id="Vector" d="M162.873 267.493C160.374 267.493 157.978 266.5 156.211 264.733C154.444 262.966 153.451 260.569 153.451 258.07L153.451 243.251C153.477 240.769 154.481 238.396 156.245 236.65C158.009 234.904 160.391 233.925 162.874 233.925C165.356 233.925 167.738 234.904 169.502 236.65C171.267 238.396 172.271 240.769 172.296 243.251L172.296 258.07C172.296 260.569 171.303 262.966 169.536 264.733C167.769 266.5 165.372 267.493 162.873 267.493Z" fill="#5BA02E" fill-opacity="1.000000" fill-rule="evenodd"/>
	<path id="Vector" d="M171.22 267.429C169.983 267.429 168.758 267.186 167.615 266.712C166.471 266.238 165.432 265.544 164.558 264.669C163.683 263.794 162.989 262.755 162.515 261.612C162.042 260.469 161.798 259.243 161.798 258.006L161.798 254.568C161.824 252.086 162.828 249.714 164.592 247.968C166.356 246.222 168.739 245.242 171.221 245.242C173.703 245.242 176.085 246.222 177.849 247.968C179.614 249.714 180.618 252.086 180.643 254.568L180.643 258.006C180.643 260.505 179.651 262.901 177.884 264.669C176.117 266.436 173.72 267.429 171.221 267.429L171.22 267.429Z" fill="#92C110" fill-opacity="1.000000" fill-rule="evenodd"/>
	<path id="Vector" d="M181.31 293.265L153.598 293.265C153.177 293.265 152.759 293.182 152.37 293.021C151.98 292.859 151.627 292.622 151.329 292.324C151.031 292.026 150.794 291.673 150.633 291.283C150.472 290.894 150.389 290.477 150.389 290.055L150.389 269.389C150.389 268.967 150.472 268.55 150.633 268.16C150.794 267.771 151.031 267.417 151.329 267.119C151.627 266.821 151.98 266.584 152.37 266.423C152.759 266.262 153.177 266.179 153.598 266.179L181.309 266.179C181.731 266.179 182.148 266.262 182.537 266.423C182.927 266.584 183.281 266.821 183.579 267.119C183.877 267.417 184.113 267.771 184.274 268.16C184.435 268.55 184.518 268.967 184.518 269.389L184.518 290.057C184.518 290.908 184.18 291.724 183.578 292.326C182.976 292.928 182.16 293.266 181.309 293.266L181.31 293.265Z" fill="#F2D7AD" fill-opacity="1.000000" fill-rule="evenodd"/>
</svg>
