<svg width="14.000000" height="14.000000" viewBox="0 0 14 14" fill="none" xmlns="http://www.w3.org/2000/svg" xmlns:xlink="http://www.w3.org/1999/xlink">
	<desc>
			Created with Pixso.
	</desc>
	<defs>
		<clipPath id="clip15_22637">
			<rect id="android" width="14.000000" height="14.000000" fill="white" fill-opacity="0"/>
		</clipPath>
	</defs>
	<g clip-path="url(#clip15_22637)">
		<path id="Vector" d="M3.69287 10.1405C3.69287 10.4604 3.9541 10.7216 4.27539 10.7216L4.94092 10.7216L4.94092 12.3677C4.94092 12.7847 5.27588 13.125 5.6875 13.125C6.10059 13.125 6.43408 12.786 6.43408 12.3677L6.43408 10.7202L7.59619 10.7202L7.59619 12.3662C7.59619 12.7832 7.93115 13.1237 8.34277 13.1237C8.75537 13.1237 9.08936 12.7847 9.08936 12.3662L9.08936 10.7202L9.75488 10.7202C10.0762 10.7202 10.3374 10.459 10.3374 10.1392L10.3374 4.73596L3.69287 4.73596L3.69287 10.1405ZM8.5752 1.93604L9.18896 1.04736C9.22461 0.995361 9.21631 0.925659 9.16846 0.891479C9.12061 0.858643 9.05225 0.875 9.0166 0.927002L8.37939 1.8512C7.95996 1.68579 7.49219 1.59424 7.00146 1.59424C6.51074 1.59424 6.04297 1.68579 5.62354 1.8512L4.98633 0.928345C4.95068 0.876465 4.88232 0.858643 4.83447 0.892822C4.78662 0.925659 4.77832 0.994019 4.81396 1.04871L5.42773 1.93738C4.45166 2.39124 3.76807 3.25122 3.68066 4.2561L10.3252 4.2561C10.2349 3.24988 9.5498 2.38989 8.5752 1.93604ZM5.59863 3.3374C5.52588 3.3374 5.45508 3.3158 5.39453 3.27539C5.33398 3.23499 5.28662 3.17749 5.25879 3.11035C5.23096 3.04309 5.22363 2.96924 5.23779 2.89783C5.25244 2.82654 5.28711 2.76099 5.33887 2.70947C5.39014 2.65808 5.45557 2.62305 5.52686 2.60889C5.59814 2.59473 5.67236 2.60193 5.73926 2.62976C5.80664 2.65759 5.86426 2.70483 5.9043 2.76526C5.94482 2.82568 5.96631 2.89685 5.96631 2.9696C5.96631 3.06702 5.92725 3.1604 5.8584 3.22937C5.78955 3.29834 5.69629 3.33716 5.59863 3.3374ZM8.44775 3.3374C8.375 3.3374 8.3042 3.3158 8.24365 3.27539C8.18311 3.23499 8.13623 3.17749 8.1084 3.11035C8.08057 3.04309 8.07324 2.96924 8.0874 2.89783C8.10156 2.82654 8.13623 2.76099 8.18799 2.70947C8.23926 2.65808 8.30469 2.62305 8.37598 2.60889C8.44775 2.59473 8.52148 2.60193 8.58887 2.62976C8.65576 2.65759 8.71338 2.70483 8.75391 2.76526C8.79395 2.82568 8.81592 2.89685 8.81592 2.9696C8.81543 3.06702 8.77686 3.1604 8.70752 3.22937C8.63867 3.29834 8.54541 3.33716 8.44775 3.3374ZM11.5024 4.71411C11.0894 4.71411 10.7559 5.05322 10.7559 5.47156L10.7559 8.43018C10.7559 8.84717 11.0908 9.1875 11.5024 9.1875C11.915 9.1875 12.2485 8.84851 12.2485 8.43018L12.2485 5.47021C12.25 5.05176 11.9165 4.71411 11.5024 4.71411ZM2.49805 4.71411C2.08496 4.71411 1.75146 5.05322 1.75146 5.47156L1.75146 8.43018C1.75146 8.84717 2.08643 9.1875 2.49805 9.1875C2.91064 9.1875 3.24463 8.84851 3.24463 8.43018L3.24463 5.47021C3.24463 5.05176 2.90967 4.71411 2.49805 4.71411Z" fill="#000000" fill-opacity="0.850000" fill-rule="nonzero"/>
	</g>
</svg>
