<svg width="14.000000" height="14.000000" viewBox="0 0 14 14" fill="none" xmlns="http://www.w3.org/2000/svg" xmlns:xlink="http://www.w3.org/1999/xlink">
	<desc>
			Created with Pixso.
	</desc>
	<defs>
		<clipPath id="clip15_22645">
			<rect id="apple" width="14.000000" height="14.000000" fill="white" fill-opacity="0"/>
		</clipPath>
	</defs>
	<g clip-path="url(#clip15_22645)">
		<path id="Vector" d="M10.2183 7.32397C10.2129 6.3916 10.6353 5.68884 11.4883 5.17065C11.0112 4.48706 10.2896 4.11108 9.33789 4.0387C8.43701 3.96753 7.45117 4.56372 7.09033 4.56372C6.70898 4.56372 5.83643 4.06323 5.15039 4.06323C3.73389 4.08521 2.22852 5.19263 2.22852 7.44568C2.22852 8.11157 2.3501 8.79919 2.59375 9.50745C2.91895 10.4398 4.0918 12.7244 5.31543 12.6875C5.95557 12.6725 6.4082 12.2336 7.24072 12.2336C8.04883 12.2336 8.4668 12.6875 9.18066 12.6875C10.415 12.6697 11.4761 10.593 11.7852 9.65784C10.1294 8.8772 10.2183 7.37183 10.2183 7.32397ZM8.78125 3.15405C9.47461 2.33105 9.41162 1.58179 9.39111 1.3125C8.77881 1.34802 8.07031 1.72949 7.66699 2.19849C7.22266 2.70154 6.96191 3.32361 7.01758 4.02502C7.67969 4.07556 8.28369 3.73511 8.78125 3.15405Z" fill="#000000" fill-opacity="0.850000" fill-rule="nonzero"/>
	</g>
</svg>
