<svg width="9.893555" height="10.187500" viewBox="0 0 9.89355 10.1875" fill="none" xmlns="http://www.w3.org/2000/svg" xmlns:xlink="http://www.w3.org/1999/xlink">
	<defs/>
	<path id="Vector" d="M5.7627 5.09375L9.86426 0.204712C9.93262 0.123413 9.875 0 9.76855 0L8.52246 0C8.44824 0 8.37793 0.0328369 8.33008 0.0890503L4.94727 4.12189L1.56445 0.0890503C1.51758 0.0328369 1.44727 0 1.37207 0L0.125 0C0.0185547 0 -0.0390625 0.123413 0.0302734 0.204712L4.13184 5.09375L0.0302734 9.98279C0.0146484 10.0009 0.00488281 10.0231 0.000976562 10.0466C-0.00195312 10.0702 0.00195312 10.0942 0.0117188 10.1157C0.0214844 10.1373 0.0380859 10.1555 0.0576172 10.1682C0.078125 10.1809 0.101562 10.1876 0.125 10.1875L1.37207 10.1875C1.44531 10.1875 1.51562 10.1547 1.56445 10.0984L4.94727 6.06561L8.33008 10.0984C8.37695 10.1547 8.44727 10.1875 8.52246 10.1875L9.76855 10.1875C9.875 10.1875 9.93262 10.0641 9.86426 9.98279L5.7627 5.09375Z" fill="#8C8C8C" fill-opacity="1.000000" fill-rule="nonzero"/>
</svg>
