<svg width="32.000000" height="33.000000" viewBox="0 0 32 33" fill="none" xmlns="http://www.w3.org/2000/svg" xmlns:xlink="http://www.w3.org/1999/xlink">
	<desc>
			Created with Pixso.
	</desc>
	<defs>
		<linearGradient id="paint_linear_29_260054_0" x1="16.547642" y1="14.902363" x2="16.547642" y2="-3.522312" gradientUnits="userSpaceOnUse">
			<stop stop-color="#DEDEDE" stop-opacity="0.000000"/>
			<stop offset="1.000000" stop-color="#A9A9A9" stop-opacity="0.301961"/>
		</linearGradient>
		<linearGradient id="paint_linear_29_260055_0" x1="15.146374" y1="30.508503" x2="15.146374" y2="25.283203" gradientUnits="userSpaceOnUse">
			<stop stop-color="#FFFFFF" stop-opacity="0.000000"/>
			<stop offset="1.000000" stop-color="#96A1C5" stop-opacity="0.372549"/>
		</linearGradient>
		<linearGradient id="paint_linear_29_260056_0" x1="16.000000" y1="32.000305" x2="16.000000" y2="23.419334" gradientUnits="userSpaceOnUse">
			<stop stop-color="#FFFFFF" stop-opacity="0.000000"/>
			<stop offset="1.000000" stop-color="#919191" stop-opacity="0.149020"/>
		</linearGradient>
		<linearGradient id="paint_linear_29_260058_0" x1="15.815247" y1="16.033203" x2="15.815247" y2="19.331928" gradientUnits="userSpaceOnUse">
			<stop stop-color="#5389F5"/>
			<stop offset="1.000000" stop-color="#416FDC"/>
		</linearGradient>
		<linearGradient id="paint_linear_29_260059_0" x1="17.072609" y1="25.622498" x2="17.072609" y2="18.899925" gradientUnits="userSpaceOnUse">
			<stop stop-color="#DCE9FF"/>
			<stop offset="1.000000" stop-color="#B6CFFF"/>
		</linearGradient>
		<linearGradient id="paint_linear_29_260060_0" x1="15.815371" y1="20.920898" x2="15.815371" y2="27.338388" gradientUnits="userSpaceOnUse">
			<stop stop-color="#7CA5F7"/>
			<stop offset="1.000000" stop-color="#C4D6FC"/>
		</linearGradient>
	</defs>
	<g opacity="0.800000">
		<path id="Vector" d="M6.42 5.99C6.75 4.3 7.06 3.25 7.34 2.83C8.12 1.68 9.2 2.31 9.44 2.4C10.24 2.71 9.98 0.64 10.68 0.22C11.14 -0.07 11.52 0.28 11.82 1.25C12.08 0.34 12.48 -0.07 13.03 0C13.84 0.12 14.12 4.57 15.24 3.6C16.35 2.62 17.72 2.4 18.31 3.85C18.43 4.16 18.48 3.67 19.34 2.01C20.2 0.35 21.05 -0.38 22.81 0.59C23.61 1.03 24.27 2.22 24.79 4.16C24.79 6.93 26.04 8.58 28.55 9.09C32.32 9.85 29.39 16.43 24.79 18.36C20.17 20.29 9.56 21.33 3.8 16.46C-0.04 13.21 0.84 9.72 6.42 5.99L6.42 5.99Z" fill="url(#paint_linear_29_260054_0)" fill-opacity="1.000000" fill-rule="evenodd"/>
	</g>
	<path id="Vector" d="M22.81 27.89C22.81 29.33 19.7 30.5 15.87 30.5C12.03 30.5 8.92 29.33 8.92 27.89C8.92 26.45 12.03 25.28 15.87 25.28C19.7 25.28 22.81 26.45 22.81 27.89Z" fill="url(#paint_linear_29_260055_0)" fill-opacity="1.000000" fill-rule="evenodd"/>
	<g opacity="0.675000">
		<path id="Vector" d="M27.59 31.15C22.37 33.28 4.54 30.85 2.65 29.73C1.72 29.19 0.89 28.17 0.15 26.68C0.07 26.51 0.01 26.31 0 26.1C-0.02 25.88 0.01 25.67 0.06 25.47C0.12 25.28 0.21 25.11 0.32 25C0.43 24.89 0.56 24.83 0.7 24.83L31.84 24.83C32.49 27.62 31.07 29.73 27.59 31.15Z" fill="url(#paint_linear_29_260056_0)" fill-opacity="1.000000" fill-rule="evenodd"/>
	</g>
	<path id="Vector" d="M21.2 20.89L18.82 16.37C18.76 16.27 18.69 16.18 18.62 16.12C18.54 16.06 18.45 16.03 18.36 16.03L13.26 16.03C13.08 16.03 12.91 16.16 12.8 16.37L10.43 20.89L10.43 23.37L21.2 23.37L21.2 20.89Z" fill="url(#paint_linear_29_260058_0)" fill-opacity="1.000000" fill-rule="nonzero"/>
	<path id="Vector" d="M20.52 23.46L18.44 19.53C18.39 19.43 18.33 19.36 18.26 19.31C18.19 19.26 18.12 19.23 18.04 19.23L13.58 19.23C13.43 19.23 13.28 19.34 13.18 19.53L11.1 23.46L11.1 25.62L20.52 25.62L20.52 23.46Z" fill="url(#paint_linear_29_260059_0)" fill-opacity="1.000000" fill-rule="nonzero"/>
	<path id="Vector" d="M21.2 26.21C21.2 26.55 21.1 26.86 20.95 27.07L20.92 27.11C20.8 27.25 20.65 27.33 20.5 27.33L11.12 27.33C11.03 27.33 10.95 27.31 10.88 27.26L10.84 27.24C10.72 27.15 10.61 27 10.54 26.82C10.46 26.64 10.43 26.42 10.43 26.21L10.43 20.92L13.04 20.92C13.33 20.92 13.56 21.3 13.56 21.77L13.56 21.78C13.56 22.25 13.79 22.62 14.08 22.62L17.54 22.62C17.68 22.62 17.81 22.53 17.91 22.37C18 22.21 18.06 22 18.06 21.77C18.06 21.3 18.29 20.92 18.58 20.92L21.2 20.92L21.2 26.21Z" fill="url(#paint_linear_29_260060_0)" fill-opacity="1.000000" fill-rule="nonzero"/>
</svg>
