<svg width="16.000000" height="16.000000" viewBox="0 0 16 16" fill="none" xmlns="http://www.w3.org/2000/svg" xmlns:xlink="http://www.w3.org/1999/xlink">
	<desc>
			Created with Pixso.
	</desc>
	<defs>
		<clipPath id="clip15_25896">
			<rect id="Exit" width="16.000000" height="16.000000" fill="white" fill-opacity="0"/>
		</clipPath>
	</defs>
	<rect id="Exit" width="16.000000" height="16.000000" fill="#FFFFFF" fill-opacity="1.000000"/>
	<g clip-path="url(#clip15_25896)">
		<path id="Vector" d="M14.0474 0.929688L4.62695 0.929688C4.35059 0.929688 4.12695 1.15295 4.12695 1.42969L4.12695 4.42969C4.12695 4.46899 4.15918 4.5011 4.19873 4.5011L5.27002 4.5011C5.30908 4.5011 5.34131 4.46899 5.34131 4.42969L5.34131 2.14392L13.333 2.14392L13.333 13.8583L5.34131 13.8583L5.34131 11.5725C5.34131 11.5332 5.30908 11.5011 5.27002 11.5011L4.19873 11.5011C4.15918 11.5011 4.12695 11.5332 4.12695 11.5725L4.12695 14.5725C4.12695 14.8494 4.35059 15.0725 4.62695 15.0725L14.0474 15.0725C14.3242 15.0725 14.5474 14.8494 14.5474 14.5725L14.5474 1.42969C14.5474 1.15295 14.3242 0.929688 14.0474 0.929688ZM3.74609 5.86902L3.74609 7.39392L10.6665 7.39392L10.6665 8.60828L3.74609 8.60828L3.74609 10.1333C3.74609 10.2012 3.66748 10.2386 3.61572 10.1975L0.919434 8.0636C0.909668 8.05603 0.901855 8.04639 0.896973 8.0354C0.891602 8.02441 0.888672 8.01245 0.888672 8.00024C0.888672 7.98804 0.891602 7.97595 0.896973 7.96497C0.901855 7.95398 0.909668 7.94434 0.919434 7.93689L3.61572 5.80469C3.66943 5.76184 3.74609 5.80115 3.74609 5.86902Z" fill="#000000" fill-opacity="1.000000" fill-rule="evenodd"/>
	</g>
</svg>
