<svg width="14.000000" height="14.000000" viewBox="0 0 14 14" fill="none" xmlns="http://www.w3.org/2000/svg" xmlns:xlink="http://www.w3.org/1999/xlink">
	<desc>
			Created with Pixso.
	</desc>
	<defs>
		<clipPath id="clip15_25120">
			<rect width="14.000000" height="14.000000" fill="white" fill-opacity="0"/>
		</clipPath>
	</defs>
	<g clip-path="url(#clip15_25120)">
		<path d="M9.73438 4.15625C9.73438 4.21643 9.68506 4.26562 9.625 4.26562L8.85938 4.26562C8.79932 4.26562 8.75 4.21643 8.75 4.15625L8.75 3.5L5.25 3.5L5.25 4.15625C5.25 4.21643 5.20068 4.26562 5.14062 4.26562L4.375 4.26562C4.31494 4.26562 4.26562 4.21643 4.26562 4.15625L4.26562 3.5L2.51562 3.5L2.51562 5.35938L11.4844 5.35938L11.4844 3.5L9.73438 3.5L9.73438 4.15625Z" fill="#F0F5FF" fill-opacity="1.000000" fill-rule="nonzero"/>
		<path d="M12.0312 2.51562L9.73438 2.51562L9.73438 1.64062C9.73438 1.58044 9.68506 1.53125 9.625 1.53125L8.85938 1.53125C8.79932 1.53125 8.75 1.58044 8.75 1.64062L8.75 2.51562L5.25 2.51562L5.25 1.64062C5.25 1.58044 5.20068 1.53125 5.14062 1.53125L4.375 1.53125C4.31494 1.53125 4.26562 1.58044 4.26562 1.64062L4.26562 2.51562L1.96875 2.51562C1.72656 2.51562 1.53125 2.71118 1.53125 2.95312L1.53125 12.0312C1.53125 12.2732 1.72656 12.4688 1.96875 12.4688L12.0312 12.4688C12.2734 12.4688 12.4688 12.2732 12.4688 12.0312L12.4688 2.95312C12.4688 2.71118 12.2734 2.51562 12.0312 2.51562ZM11.4844 11.4844L2.51562 11.4844L2.51562 6.28906L11.4844 6.28906L11.4844 11.4844ZM11.4844 5.35938L2.51562 5.35938L2.51562 3.5L4.26562 3.5L4.26562 4.15625C4.26562 4.21643 4.31494 4.26562 4.375 4.26562L5.14062 4.26562C5.20068 4.26562 5.25 4.21643 5.25 4.15625L5.25 3.5L8.75 3.5L8.75 4.15625C8.75 4.21643 8.79932 4.26562 8.85938 4.26562L9.625 4.26562C9.68506 4.26562 9.73438 4.21643 9.73438 4.15625L9.73438 3.5L11.4844 3.5L11.4844 5.35938Z" fill="#2F54EB" fill-opacity="1.000000" fill-rule="nonzero"/>
	</g>
</svg>
