<svg width="14.000000" height="14.000000" viewBox="0 0 14 14" fill="none" xmlns="http://www.w3.org/2000/svg" xmlns:xlink="http://www.w3.org/1999/xlink">
	<desc>
			Created with Pixso.
	</desc>
	<defs>
		<clipPath id="clip15_25136">
			<rect id="Property 1=profile" width="14.000000" height="14.000000" fill="white" fill-opacity="0"/>
		</clipPath>
	</defs>
	<g clip-path="url(#clip15_25136)">
		<circle id="Ellipse 1" cx="5.055664" cy="6.222168" r="0.972222" fill="#F0F5FF" fill-opacity="1.000000"/>
		<path id="Vector" d="M12.0312 1.53125L1.96875 1.53125C1.72656 1.53125 1.53125 1.72681 1.53125 1.96875L1.53125 12.0312C1.53125 12.2732 1.72656 12.4688 1.96875 12.4688L12.0312 12.4688C12.2734 12.4688 12.4688 12.2732 12.4688 12.0312L12.4688 1.96875C12.4688 1.72681 12.2734 1.53125 12.0312 1.53125ZM11.4844 11.4844L2.51562 11.4844L2.51562 2.51562L11.4844 2.51562L11.4844 11.4844Z" fill="#2F54EB" fill-opacity="1.000000" fill-rule="evenodd"/>
		<path id="Vector" d="M8.34375 6.50781L10.0308 6.50781C10.0483 6.50781 10.062 6.45862 10.062 6.39844L10.062 5.74219C10.062 5.68201 10.0483 5.63281 10.0308 5.63281L8.34375 5.63281C8.32568 5.63281 8.31201 5.68201 8.31201 5.74219L8.31201 6.39844C8.31201 6.45862 8.32568 6.50781 8.34375 6.50781ZM8.40918 8.47656L10.9482 8.47656C11.0015 8.47656 11.0449 8.42737 11.0449 8.36719L11.0449 7.71094C11.0449 7.65076 11.0015 7.60156 10.9482 7.60156L8.40918 7.60156C8.35596 7.60156 8.31201 7.65076 8.31201 7.71094L8.31201 8.36719C8.31201 8.42737 8.35596 8.47656 8.40918 8.47656ZM3.06201 9.20117L3.66211 9.20117C3.71973 9.20117 3.76611 9.15601 3.77051 9.09863C3.82227 8.4082 4.39941 7.86133 5.09912 7.86133C5.79932 7.86133 6.37598 8.4082 6.42822 9.09863C6.43213 9.15601 6.47852 9.20117 6.53613 9.20117L7.13623 9.20117C7.15137 9.20117 7.16602 9.19824 7.17969 9.19238C7.19336 9.18652 7.20557 9.17798 7.21582 9.16724C7.22607 9.15649 7.23389 9.1438 7.23926 9.12988C7.24414 9.11597 7.24658 9.1012 7.24561 9.0863C7.20752 8.35767 6.80811 7.72327 6.22559 7.3623C6.48242 7.07996 6.62451 6.71179 6.62354 6.33008C6.62354 5.48376 5.94141 4.79883 5.10059 4.79883C4.25977 4.79883 3.57764 5.48376 3.57764 6.33008C3.57764 6.72791 3.72803 7.08887 3.97559 7.3623C3.67871 7.54602 3.43115 7.79883 3.25391 8.099C3.07617 8.39929 2.97363 8.73804 2.95557 9.0863C2.9502 9.14917 2.99902 9.20117 3.06201 9.20117ZM5.09912 5.61914C5.48877 5.61914 5.80615 5.93774 5.80615 6.33008C5.80615 6.72241 5.48877 7.04102 5.09912 7.04102C4.70947 7.04102 4.39258 6.72241 4.39258 6.33008C4.39258 5.93774 4.70947 5.61914 5.09912 5.61914Z" fill="#2F54EB" fill-opacity="1.000000" fill-rule="evenodd"/>
	</g>
</svg>
